<?xml version="1.0" encoding="UTF-8" standalone="no"?>
<!DOCTYPE svg PUBLIC "-//W3C//DTD SVG 1.1//EN"
 "http://www.w3.org/Graphics/SVG/1.1/DTD/svg11.dtd">
<!-- Generated by graphviz version 2.42.4 (0)
 -->
<!-- Title: ER Pages: 1 -->
<svg width="851pt" height="398pt"
 viewBox="0.00 0.00 851.00 397.50" xmlns="http://www.w3.org/2000/svg" xmlns:xlink="http://www.w3.org/1999/xlink">
<g id="graph0" class="graph" transform="scale(1 1) rotate(0) translate(4 393.5)">
<title>ER</title>
<polygon fill="white" stroke="transparent" points="-4,4 -4,-393.5 847,-393.5 847,4 -4,4"/>
<!-- equipos -->
<g id="node1" class="node">
<title>equipos</title>
<path fill="#f8fafc" stroke="#334155" d="M458,-213.5C458,-213.5 573,-213.5 573,-213.5 579,-213.5 585,-219.5 585,-225.5 585,-225.5 585,-308.5 585,-308.5 585,-314.5 579,-320.5 573,-320.5 573,-320.5 458,-320.5 458,-320.5 452,-320.5 446,-314.5 446,-308.5 446,-308.5 446,-225.5 446,-225.5 446,-219.5 452,-213.5 458,-213.5"/>
<text text-anchor="middle" x="477" y="-264.5" font-family="Arial" font-size="10.00">EQUIPOS</text>
<polyline fill="none" stroke="#334155" points="508,-213.5 508,-320.5 "/>
<text text-anchor="start" x="516" y="-308.5" font-family="Arial" font-size="10.00">PK id</text>
<text text-anchor="start" x="516" y="-297.5" font-family="Arial" font-size="10.00">categoria</text>
<text text-anchor="start" x="516" y="-286.5" font-family="Arial" font-size="10.00">marca</text>
<text text-anchor="start" x="516" y="-275.5" font-family="Arial" font-size="10.00">descripcion</text>
<text text-anchor="start" x="516" y="-264.5" font-family="Arial" font-size="10.00">sku</text>
<text text-anchor="start" x="516" y="-253.5" font-family="Arial" font-size="10.00">mac</text>
<text text-anchor="start" x="516" y="-242.5" font-family="Arial" font-size="10.00">estado</text>
<text text-anchor="start" x="516" y="-231.5" font-family="Arial" font-size="10.00">cantidad</text>
<text text-anchor="start" x="516" y="-220.5" font-family="Arial" font-size="10.00">stock_minimo</text>
</g>
<!-- detalle -->
<g id="node9" class="node">
<title>detalle</title>
<path fill="#f8fafc" stroke="#334155" d="M690,-67C690,-67 830,-67 830,-67 836,-67 842,-73 842,-79 842,-79 842,-107 842,-107 842,-113 836,-119 830,-119 830,-119 690,-119 690,-119 684,-119 678,-113 678,-107 678,-107 678,-79 678,-79 678,-73 684,-67 690,-67"/>
<text text-anchor="middle" x="723" y="-90.5" font-family="Arial" font-size="10.00">GUIA_DETALLE</text>
<polyline fill="none" stroke="#334155" points="768,-67 768,-119 "/>
<text text-anchor="start" x="776" y="-107" font-family="Arial" font-size="10.00">PK id</text>
<text text-anchor="start" x="776" y="-96" font-family="Arial" font-size="10.00">FK guia_id</text>
<text text-anchor="start" x="776" y="-85" font-family="Arial" font-size="10.00">FK equipo_id</text>
<text text-anchor="start" x="776" y="-74" font-family="Arial" font-size="10.00">cantidad</text>
</g>
<!-- equipos&#45;&gt;detalle -->
<g id="edge8" class="edge">
<title>equipos&#45;&gt;detalle</title>
<path fill="none" stroke="#475569" d="M583.11,-213.24C618.44,-185.01 658.33,-153.71 677,-141 685.28,-135.36 694.25,-129.7 703.12,-124.33"/>
<polygon fill="#475569" stroke="#475569" points="705.12,-127.21 711.92,-119.09 701.54,-121.2 705.12,-127.21"/>
<text text-anchor="middle" x="637" y="-179.8" font-family="Arial" font-size="9.00">1 a N</text>
</g>
<!-- salidas -->
<g id="node10" class="node">
<title>salidas</title>
<path fill="#f8fafc" stroke="#334155" d="M705.5,-315C705.5,-315 814.5,-315 814.5,-315 820.5,-315 826.5,-321 826.5,-327 826.5,-327 826.5,-377 826.5,-377 826.5,-383 820.5,-389 814.5,-389 814.5,-389 705.5,-389 705.5,-389 699.5,-389 693.5,-383 693.5,-377 693.5,-377 693.5,-327 693.5,-327 693.5,-321 699.5,-315 705.5,-315"/>
<text text-anchor="middle" x="723" y="-349.5" font-family="Arial" font-size="10.00">SALIDAS</text>
<polyline fill="none" stroke="#334155" points="752.5,-315 752.5,-389 "/>
<text text-anchor="start" x="760.5" y="-377" font-family="Arial" font-size="10.00">PK id</text>
<text text-anchor="start" x="760.5" y="-366" font-family="Arial" font-size="10.00">FK equipo_id</text>
<text text-anchor="start" x="760.5" y="-355" font-family="Arial" font-size="10.00">personal</text>
<text text-anchor="start" x="760.5" y="-344" font-family="Arial" font-size="10.00">destino</text>
<text text-anchor="start" x="760.5" y="-333" font-family="Arial" font-size="10.00">cantidad</text>
<text text-anchor="start" x="760.5" y="-322" font-family="Arial" font-size="10.00">fecha</text>
</g>
<!-- equipos&#45;&gt;salidas -->
<g id="edge9" class="edge">
<title>equipos&#45;&gt;salidas</title>
<path fill="none" stroke="#475569" d="M585.02,-291.02C615.73,-301.78 652.06,-314.52 683.55,-325.55"/>
<polygon fill="#475569" stroke="#475569" points="682.56,-328.92 693.16,-328.92 684.88,-322.31 682.56,-328.92"/>
<text text-anchor="middle" x="637" y="-314.8" font-family="Arial" font-size="9.00">1 a N</text>
</g>
<!-- movimientos -->
<g id="node11" class="node">
<title>movimientos</title>
<path fill="#f8fafc" stroke="#334155" d="M689,-163.5C689,-163.5 831,-163.5 831,-163.5 837,-163.5 843,-169.5 843,-175.5 843,-175.5 843,-258.5 843,-258.5 843,-264.5 837,-270.5 831,-270.5 831,-270.5 689,-270.5 689,-270.5 683,-270.5 677,-264.5 677,-258.5 677,-258.5 677,-175.5 677,-175.5 677,-169.5 683,-163.5 689,-163.5"/>
<text text-anchor="middle" x="721" y="-214.5" font-family="Arial" font-size="10.00">MOVIMIENTOS</text>
<polyline fill="none" stroke="#334155" points="765,-163.5 765,-270.5 "/>
<text text-anchor="start" x="773" y="-258.5" font-family="Arial" font-size="10.00">PK id</text>
<text text-anchor="start" x="773" y="-247.5" font-family="Arial" font-size="10.00">FK equipo_id</text>
<text text-anchor="start" x="773" y="-236.5" font-family="Arial" font-size="10.00">FK guia_id</text>
<text text-anchor="start" x="773" y="-225.5" font-family="Arial" font-size="10.00">tipo</text>
<text text-anchor="start" x="773" y="-214.5" font-family="Arial" font-size="10.00">cantidad</text>
<text text-anchor="start" x="773" y="-203.5" font-family="Arial" font-size="10.00">stock_anterior</text>
<text text-anchor="start" x="773" y="-192.5" font-family="Arial" font-size="10.00">stock_nuevo</text>
<text text-anchor="start" x="773" y="-181.5" font-family="Arial" font-size="10.00">referencia</text>
<text text-anchor="start" x="773" y="-170.5" font-family="Arial" font-size="10.00">fecha</text>
</g>
<!-- equipos&#45;&gt;movimientos -->
<g id="edge10" class="edge">
<title>equipos&#45;&gt;movimientos</title>
<path fill="none" stroke="#475569" d="M585.02,-252.87C610.47,-247.63 639.76,-241.59 666.97,-235.98"/>
<polygon fill="#475569" stroke="#475569" points="667.8,-239.38 676.89,-233.93 666.39,-232.52 667.8,-239.38"/>
<text text-anchor="middle" x="637" y="-245.8" font-family="Arial" font-size="9.00">1 a N</text>
</g>
<!-- categorias -->
<g id="node2" class="node">
<title>categorias</title>
<path fill="#f8fafc" stroke="#334155" d="M218,-329C218,-329 342,-329 342,-329 348,-329 354,-335 354,-341 354,-341 354,-353 354,-353 354,-359 348,-365 342,-365 342,-365 218,-365 218,-365 212,-365 206,-359 206,-353 206,-353 206,-341 206,-341 206,-335 212,-329 218,-329"/>
<text text-anchor="middle" x="247" y="-344.5" font-family="Arial" font-size="10.00">CATEGORIAS</text>
<polyline fill="none" stroke="#334155" points="288,-329 288,-365 "/>
<text text-anchor="start" x="296" y="-350" font-family="Arial" font-size="10.00">PK id</text>
<text text-anchor="start" x="296" y="-339" font-family="Arial" font-size="10.00">nombre UK</text>
</g>
<!-- categorias&#45;&gt;equipos -->
<g id="edge1" class="edge">
<title>categorias&#45;&gt;equipos</title>
<path fill="none" stroke="#475569" d="M333.69,-328.95C363.81,-318.63 402.16,-305.49 435.79,-293.97"/>
<polygon fill="#475569" stroke="#475569" points="437.27,-297.16 445.6,-290.61 435,-290.54 437.27,-297.16"/>
<text text-anchor="middle" x="394" y="-313.8" font-family="Arial" font-size="9.00">1 a N</text>
</g>
<!-- marcas -->
<g id="node3" class="node">
<title>marcas</title>
<path fill="#f8fafc" stroke="#334155" d="M229,-249C229,-249 331,-249 331,-249 337,-249 343,-255 343,-261 343,-261 343,-273 343,-273 343,-279 337,-285 331,-285 331,-285 229,-285 229,-285 223,-285 217,-279 217,-273 217,-273 217,-261 217,-261 217,-255 223,-249 229,-249"/>
<text text-anchor="middle" x="247" y="-264.5" font-family="Arial" font-size="10.00">MARCAS</text>
<polyline fill="none" stroke="#334155" points="277,-249 277,-285 "/>
<text text-anchor="start" x="285" y="-270" font-family="Arial" font-size="10.00">PK id</text>
<text text-anchor="start" x="285" y="-259" font-family="Arial" font-size="10.00">nombre UK</text>
</g>
<!-- marcas&#45;&gt;equipos -->
<g id="edge2" class="edge">
<title>marcas&#45;&gt;equipos</title>
<path fill="none" stroke="#475569" d="M343.27,-267C371.67,-267 405.62,-267 435.77,-267"/>
<polygon fill="#475569" stroke="#475569" points="435.83,-270.5 445.83,-267 435.83,-263.5 435.83,-270.5"/>
<text text-anchor="middle" x="394" y="-269.8" font-family="Arial" font-size="9.00">1 a N</text>
</g>
<!-- modelos -->
<g id="node4" class="node">
<title>modelos</title>
<path fill="#f8fafc" stroke="#334155" d="M226,-169C226,-169 334,-169 334,-169 340,-169 346,-175 346,-181 346,-181 346,-193 346,-193 346,-199 340,-205 334,-205 334,-205 226,-205 226,-205 220,-205 214,-199 214,-193 214,-193 214,-181 214,-181 214,-175 220,-169 226,-169"/>
<text text-anchor="middle" x="247" y="-184.5" font-family="Arial" font-size="10.00">MODELOS</text>
<polyline fill="none" stroke="#334155" points="280,-169 280,-205 "/>
<text text-anchor="start" x="288" y="-190" font-family="Arial" font-size="10.00">PK id</text>
<text text-anchor="start" x="288" y="-179" font-family="Arial" font-size="10.00">nombre UK</text>
</g>
<!-- modelos&#45;&gt;equipos -->
<g id="edge3" class="edge">
<title>modelos&#45;&gt;equipos</title>
<path fill="none" stroke="#475569" d="M333.69,-205.05C363.81,-215.37 402.16,-228.51 435.79,-240.03"/>
<polygon fill="#475569" stroke="#475569" points="435,-243.46 445.6,-243.39 437.27,-236.84 435,-243.46"/>
<text text-anchor="middle" x="394" y="-231.8" font-family="Arial" font-size="9.00">1 a N</text>
</g>
<!-- cargos -->
<g id="node5" class="node">
<title>cargos</title>
<path fill="#f8fafc" stroke="#334155" d="M12,-3C12,-3 114,-3 114,-3 120,-3 126,-9 126,-15 126,-15 126,-27 126,-27 126,-33 120,-39 114,-39 114,-39 12,-39 12,-39 6,-39 0,-33 0,-27 0,-27 0,-15 0,-15 0,-9 6,-3 12,-3"/>
<text text-anchor="middle" x="30" y="-18.5" font-family="Arial" font-size="10.00">CARGOS</text>
<polyline fill="none" stroke="#334155" points="60,-3 60,-39 "/>
<text text-anchor="start" x="68" y="-24" font-family="Arial" font-size="10.00">PK id</text>
<text text-anchor="start" x="68" y="-13" font-family="Arial" font-size="10.00">nombre UK</text>
</g>
<!-- personal -->
<g id="node6" class="node">
<title>personal</title>
<path fill="#f8fafc" stroke="#334155" d="M223.5,-0.5C223.5,-0.5 336.5,-0.5 336.5,-0.5 342.5,-0.5 348.5,-6.5 348.5,-12.5 348.5,-12.5 348.5,-29.5 348.5,-29.5 348.5,-35.5 342.5,-41.5 336.5,-41.5 336.5,-41.5 223.5,-41.5 223.5,-41.5 217.5,-41.5 211.5,-35.5 211.5,-29.5 211.5,-29.5 211.5,-12.5 211.5,-12.5 211.5,-6.5 217.5,-0.5 223.5,-0.5"/>
<text text-anchor="middle" x="247" y="-18.5" font-family="Arial" font-size="10.00">PERSONAL</text>
<polyline fill="none" stroke="#334155" points="282.5,-0.5 282.5,-41.5 "/>
<text text-anchor="start" x="290.5" y="-29.5" font-family="Arial" font-size="10.00">PK id</text>
<text text-anchor="start" x="290.5" y="-18.5" font-family="Arial" font-size="10.00">nombre UK</text>
<text text-anchor="start" x="290.5" y="-7.5" font-family="Arial" font-size="10.00">cargo</text>
</g>
<!-- cargos&#45;&gt;personal -->
<g id="edge4" class="edge">
<title>cargos&#45;&gt;personal</title>
<path fill="none" stroke="#475569" d="M126.19,-21C149.62,-21 176.57,-21 201.25,-21"/>
<polygon fill="#475569" stroke="#475569" points="201.31,-24.5 211.31,-21 201.31,-17.5 201.31,-24.5"/>
<text text-anchor="middle" x="166" y="-23.8" font-family="Arial" font-size="9.00">1 a N</text>
</g>
<!-- guias -->
<g id="node8" class="node">
<title>guias</title>
<path fill="#f8fafc" stroke="#334155" d="M446,-52C446,-52 585,-52 585,-52 591,-52 597,-58 597,-64 597,-64 597,-136 597,-136 597,-142 591,-148 585,-148 585,-148 446,-148 446,-148 440,-148 434,-142 434,-136 434,-136 434,-64 434,-64 434,-58 440,-52 446,-52"/>
<text text-anchor="middle" x="478.5" y="-97.5" font-family="Arial" font-size="10.00">GUIAS_SALIDA</text>
<polyline fill="none" stroke="#334155" points="523,-52 523,-148 "/>
<text text-anchor="start" x="531" y="-136" font-family="Arial" font-size="10.00">PK id</text>
<text text-anchor="start" x="531" y="-125" font-family="Arial" font-size="10.00">personal</text>
<text text-anchor="start" x="531" y="-114" font-family="Arial" font-size="10.00">cargo</text>
<text text-anchor="start" x="531" y="-103" font-family="Arial" font-size="10.00">destino</text>
<text text-anchor="start" x="531" y="-92" font-family="Arial" font-size="10.00">proyecto</text>
<text text-anchor="start" x="531" y="-81" font-family="Arial" font-size="10.00">responsables</text>
<text text-anchor="start" x="531" y="-70" font-family="Arial" font-size="10.00">fecha</text>
<text text-anchor="start" x="531" y="-59" font-family="Arial" font-size="10.00">estado</text>
</g>
<!-- personal&#45;&gt;guias -->
<g id="edge5" class="edge">
<title>personal&#45;&gt;guias</title>
<path fill="none" stroke="#475569" d="M341.74,-41.55C366.88,-50.06 396.57,-60.1 424.17,-69.44"/>
<polygon fill="#475569" stroke="#475569" points="423.24,-72.82 433.84,-72.71 425.49,-66.19 423.24,-72.82"/>
<text text-anchor="middle" x="394" y="-65.8" font-family="Arial" font-size="9.00">1 a N</text>
</g>
<!-- edificios -->
<g id="node7" class="node">
<title>edificios</title>
<path fill="#f8fafc" stroke="#334155" d="M225,-86C225,-86 335,-86 335,-86 341,-86 347,-92 347,-98 347,-98 347,-110 347,-110 347,-116 341,-122 335,-122 335,-122 225,-122 225,-122 219,-122 213,-116 213,-110 213,-110 213,-98 213,-98 213,-92 219,-86 225,-86"/>
<text text-anchor="middle" x="247" y="-101.5" font-family="Arial" font-size="10.00">EDIFICIOS</text>
<polyline fill="none" stroke="#334155" points="281,-86 281,-122 "/>
<text text-anchor="start" x="289" y="-107" font-family="Arial" font-size="10.00">PK id</text>
<text text-anchor="start" x="289" y="-96" font-family="Arial" font-size="10.00">nombre UK</text>
</g>
<!-- edificios&#45;&gt;guias -->
<g id="edge6" class="edge">
<title>edificios&#45;&gt;guias</title>
<path fill="none" stroke="#475569" d="M347.29,-102.86C371.09,-102.46 398.37,-101.99 423.88,-101.55"/>
<polygon fill="#475569" stroke="#475569" points="424,-105.05 433.94,-101.38 423.88,-98.05 424,-105.05"/>
<text text-anchor="middle" x="394" y="-105.8" font-family="Arial" font-size="9.00">1 a N</text>
</g>
<!-- guias&#45;&gt;detalle -->
<g id="edge7" class="edge">
<title>guias&#45;&gt;detalle</title>
<path fill="none" stroke="#475569" d="M597.2,-94.26C606.9,-93.74 616.67,-93.3 626,-93 639.46,-92.57 653.7,-92.34 667.65,-92.23"/>
<polygon fill="#475569" stroke="#475569" points="667.77,-95.73 677.75,-92.18 667.73,-88.73 667.77,-95.73"/>
<text text-anchor="middle" x="637" y="-95.8" font-family="Arial" font-size="9.00">1 a N</text>
</g>
<!-- guias&#45;&gt;movimientos -->
<g id="edge11" class="edge">
<title>guias&#45;&gt;movimientos</title>
<path fill="none" stroke="#475569" d="M597.04,-128.79C614.09,-135.56 631.82,-143.12 648,-151 654.51,-154.17 661.15,-157.59 667.78,-161.15"/>
<polygon fill="#475569" stroke="#475569" points="666.34,-164.36 676.79,-166.08 669.7,-158.22 666.34,-164.36"/>
<text text-anchor="middle" x="637" y="-153.8" font-family="Arial" font-size="9.00">0 a N</text>
</g>
</g>
</svg>
